<?xml version="1.0" encoding="UTF-8" standalone="no"?>
<svg width="25px" height="24px" viewBox="0 0 25 24" version="1.1" xmlns="http://www.w3.org/2000/svg" xmlns:xlink="http://www.w3.org/1999/xlink" xmlns:sketch="http://www.bohemiancoding.com/sketch/ns">
    <!-- Generator: Sketch 3.5.1 (25234) - http://www.bohemiancoding.com/sketch -->
    <title>Slice 1</title>
    <desc>Created with Sketch.</desc>
    <defs></defs>
    <g id="Page-1" stroke="none" stroke-width="1" fill="none" fill-rule="evenodd" sketch:type="MSPage">
        <g id="chef-hat" sketch:type="MSLayerGroup" fill="#ECF0F1">
            <g id="Page-1" sketch:type="MSShapeGroup">
                <path d="M5.55416667,20.5714286 L5.55416667,22.8571429 C5.55416667,23.4868571 6.17638889,24 6.94305556,24 L19.4430556,24 C20.2097222,24 20.8319444,23.4868571 20.8319444,22.8571429 L20.8319444,20.5714286 L5.55416667,20.5714286 Z" id="Fill-1"></path>
                <path d="M20.8319444,3.428 C20.05,3.428 19.3375,3.55828571 18.6736111,3.82914286 C17.5416667,2.084 15.6472222,1.14228571 13.1930556,1.14228571 C10.7402778,1.14228571 8.84444444,2.084 7.7125,3.828 C7.12777778,3.59257143 6.41805556,3.428 5.55416667,3.428 C3.4125,3.428 1.3875,5.09428571 1.3875,6.85657143 C1.3875,8.98228571 3.16111111,10.7742857 5.55416667,11.284 L5.55416667,19.428 L8.33194444,19.428 L8.33194444,15.9994286 L9.72083333,15.9994286 L9.72083333,19.428 L12.4986111,19.428 L12.4986111,13.7137143 L13.8875,13.7137143 L13.8875,19.428 L16.6652778,19.428 L16.6652778,15.9994286 L18.0541667,15.9994286 L18.0541667,19.428 L20.8319444,19.428 L20.8319444,11.284 C23.2263889,10.7742857 24.9986111,8.98228571 24.9986111,6.85657143 C24.9986111,5.09428571 22.9736111,3.428 20.8319444,3.428" id="Fill-3"></path>
            </g>
        </g>
    </g>
</svg>