<?xml version="1.0" encoding="UTF-8" standalone="no"?>
<svg width="25px" height="24px" viewBox="0 0 25 24" version="1.1" xmlns="http://www.w3.org/2000/svg" xmlns:xlink="http://www.w3.org/1999/xlink" xmlns:sketch="http://www.bohemiancoding.com/sketch/ns">
    <!-- Generator: Sketch 3.5.1 (25234) - http://www.bohemiancoding.com/sketch -->
    <title>Slice 1</title>
    <desc>Created with Sketch.</desc>
    <defs></defs>
    <g id="Page-1" stroke="none" stroke-width="1" fill="none" fill-rule="evenodd" sketch:type="MSPage">
        <g id="food-steak" sketch:type="MSLayerGroup">
            <g id="Frames-24px" sketch:type="MSShapeGroup">
                <rect id="Rectangle-path" x="0" y="0" width="24.001" height="24"></rect>
            </g>
            <path d="M16,2 L10,2 C4.916,2 2,4.916 2,10 L2,16 C2,21.221 5.133,22 7,22 C10.821,22 12.325,17.831 12.801,16 L16,16 C22,16 22,9.979 22,8 C22,4.691 19.309,2 16,2 L16,2 Z M12,14 C11.511,14 11.094,14.354 11.014,14.835 C11.005,14.887 10.067,20 7,20 C5.712,20 4,19.586 4,16 L4,10 C4,6.019 6.019,4 10,4 L16,4 C18.206,4 20,5.794 20,8 C20,13.273 18.078,14 16,14 L12,14 Z" id="Shape" fill="#8F1D21" sketch:type="MSShapeGroup"></path>
            <circle id="Oval" fill="#CD2727" sketch:type="MSShapeGroup" cx="7" cy="17" r="2"></circle>
            <path d="M10,5 C7.515,5 5,6.374 5,9 C5,12.318 6.009,14 8,14 C9.913,14 11.678,12.633 12.393,12 L16,12 C19,12 19,8.989 19,8 C19,6.346 17.654,5 16,5 L10,5 Z" id="Shape" fill="#CD2727" sketch:type="MSShapeGroup"></path>
        </g>
    </g>
</svg>