<?xml version="1.0" encoding="UTF-8" standalone="no"?>
<svg width="24px" height="25px" viewBox="0 0 24 25" version="1.1" xmlns="http://www.w3.org/2000/svg" xmlns:xlink="http://www.w3.org/1999/xlink" xmlns:sketch="http://www.bohemiancoding.com/sketch/ns">
    <!-- Generator: Sketch 3.5.1 (25234) - http://www.bohemiancoding.com/sketch -->
    <title>Slice 1</title>
    <desc>Created with Sketch.</desc>
    <defs></defs>
    <g id="Page-1" stroke="none" stroke-width="1" fill="none" fill-rule="evenodd" sketch:type="MSPage">
        <g id="health-medicine-bottle" sketch:type="MSLayerGroup">
            <g id="Frames-24px" sketch:type="MSShapeGroup">
                <rect id="Rectangle-path" x="0" y="0" width="24" height="24.001"></rect>
            </g>
            <g id="Outline" transform="translate(4.000000, 2.000000)" sketch:type="MSShapeGroup">
                <g id="Group">
                    <path d="M1.001,6.002 L1.001,18.002 C1.001,19.105 1.898,20.002 3.001,20.002 L13.001,20.002 C14.104,20.002 15.001,19.105 15.001,18.002 L15.001,6.002 L1.001,6.002 L1.001,6.002 Z M12.001,14.002 L9.001,14.002 L9.001,17.002 L7.001,17.002 L7.001,14.002 L4.001,14.002 L4.001,12.002 L7.001,12.002 L7.001,9.002 L9.001,9.002 L9.001,12.002 L12.001,12.002 L12.001,14.002 L12.001,14.002 Z" id="Shape" fill="#3FC380"></path>
                    <path d="M14.001,0.002 L2.001,0.002 C0.898,0.002 0.001,0.899 0.001,2.002 L0.001,5.002 L16.001,5.002 L16.001,2.002 C16.001,0.899 15.104,0.002 14.001,0.002 L14.001,0.002 Z M4.001,4.002 L2.001,4.002 L2.001,1.002 L4.001,1.002 L4.001,4.002 L4.001,4.002 Z M9.001,4.002 L7.001,4.002 L7.001,1.002 L9.001,1.002 L9.001,4.002 L9.001,4.002 Z M14.001,4.002 L12.001,4.002 L12.001,1.002 L14.001,1.002 L14.001,4.002 L14.001,4.002 Z" id="Shape" fill="#C72727"></path>
                </g>
            </g>
        </g>
    </g>
</svg>