<?xml version="1.0" encoding="UTF-8" standalone="no"?>
<svg width="25px" height="25px" viewBox="0 0 25 25" version="1.1" xmlns="http://www.w3.org/2000/svg" xmlns:xlink="http://www.w3.org/1999/xlink" xmlns:sketch="http://www.bohemiancoding.com/sketch/ns">
    <!-- Generator: Sketch 3.5.1 (25234) - http://www.bohemiancoding.com/sketch -->
    <title>Slice 1</title>
    <desc>Created with Sketch.</desc>
    <defs></defs>
    <g id="Page-1" stroke="none" stroke-width="1" fill="none" fill-rule="evenodd" sketch:type="MSPage">
        <g id="bio" sketch:type="MSLayerGroup" fill="#2ECC71">
            <g id="Page-1" sketch:type="MSShapeGroup">
                <g id="power139">
                    <g id="Group">
                        <path d="M5.70833333,17.7009868 L5.70833333,17.6098684 C6.33916667,17.4782895 6.82083333,17.1549342 7.15638889,16.6450658 C7.49333333,16.1325658 7.65888889,15.4921053 7.65888889,14.7233553 C7.65888889,13.5796053 7.31805556,12.7440789 6.63555556,12.2154605 C5.95333333,11.6851974 4.84277778,11.4203947 3.30833333,11.4203947 L0,11.4203947 L0,24.6148026 L4.02527778,24.6148026 C5.26833333,24.6148026 6.24166667,24.2792763 6.93944444,23.6082237 C7.63972222,22.9375 7.98694444,22.0088816 7.98694444,20.8243421 C7.98694444,19.9453947 7.80388889,19.2496711 7.43611111,18.7342105 C7.06722222,18.2174342 6.49083333,17.8743421 5.70833333,17.7009868 L5.70833333,17.7009868 L5.70833333,17.7009868 Z M1.82138889,13.2236842 L3.39944444,13.2236842 C4.22083333,13.2236842 4.82333333,13.3611842 5.20222222,13.6381579 C5.5825,13.9151316 5.77055556,14.3631579 5.77055556,14.9835526 C5.77055556,15.6690789 5.59333333,16.1552632 5.24388889,16.4401316 C4.89472222,16.7259868 4.33638889,16.8690789 3.57416667,16.8690789 L1.82138889,16.8690789 L1.82138889,13.2236842 L1.82138889,13.2236842 L1.82138889,13.2236842 Z M5.48555556,22.2799342 C5.09583333,22.6256579 4.51972222,22.7990132 3.7575,22.7990132 L1.82138889,22.7990132 L1.82138889,18.6203947 L3.66611111,18.6203947 C4.47416667,18.6203947 5.07694444,18.7858553 5.47166667,19.1167763 C5.86888889,19.4480263 6.06638889,19.9565789 6.06638889,20.6424342 C6.06722222,21.3875 5.87388889,21.9335526 5.48555556,22.2799342 L5.48555556,22.2799342 L5.48555556,22.2799342 Z" id="Shape"></path>
                        <rect id="Rectangle-path" x="10.3025" y="11.4180921" width="1.82333333" height="13.1944079"></rect>
                        <path d="M23.6016667,12.9894737 C22.6966667,11.8039474 21.4172222,11.2121711 19.7591667,11.2121711 C18.0786111,11.2121711 16.7858333,11.7963816 15.8788889,12.9625 C14.9719444,14.1299342 14.5186111,15.8016447 14.5186111,17.9809211 C14.5186111,20.1582237 14.9711111,21.8391447 15.8733333,23.0197368 C16.7763889,24.2016447 18.0655556,24.79375 19.7469444,24.79375 C21.4083333,24.79375 22.6911111,24.1983553 23.6005556,23.0072368 C24.5066667,21.8164474 24.9591667,20.1480263 24.9591667,17.9990132 C24.9572222,15.8434211 24.5047222,14.1740132 23.6016667,12.9894737 L23.6016667,12.9894737 L23.6016667,12.9894737 Z M22.1963889,21.7072368 C21.6461111,22.5365132 20.8275,22.9523026 19.7458333,22.9523026 C18.6583333,22.9523026 17.8372222,22.5322368 17.2838889,21.69375 C16.7308333,20.8539474 16.4530556,19.6233553 16.4530556,17.9980263 C16.4530556,16.3792763 16.7327778,15.1536184 17.2897222,14.3157895 C17.8438889,13.4805921 18.6680556,13.0618421 19.7594444,13.0618421 C20.8422222,13.0618421 21.6577778,13.4802632 22.2044444,14.3157895 C22.7502778,15.1536184 23.0219444,16.3792763 23.0219444,17.9980263 C23.0216667,19.6404605 22.7488889,20.8766447 22.1963889,21.7072368 L22.1963889,21.7072368 L22.1963889,21.7072368 Z" id="Shape"></path>
                        <path d="M15.3644444,7.82894737 C15.5841667,7.55328947 15.8005556,7.29243421 15.9927778,6.99539474 C16.3780556,6.42236842 16.7047222,5.81644737 16.9663889,5.17861842 C17.1030556,4.87796053 17.2136111,4.52960526 17.3208333,4.21513158 C17.4308333,3.90263158 17.5241667,3.55822368 17.6147222,3.24144737 C17.7058333,2.93026316 17.7897222,2.61447368 17.8619444,2.30888158 C17.9436111,1.99309211 18.0161111,1.71611842 18.0758333,1.49177632 C18.1413889,1.26710526 18.1833333,1.03190789 18.2211111,0.893421053 C18.2552778,0.736842105 18.2744444,0.654605263 18.2744444,0.654605263 C18.2744444,0.654605263 18.2088889,0.611842105 18.0938889,0.556578947 C17.9797222,0.508223684 17.7975,0.406907895 17.5841667,0.35 C17.3713889,0.290460526 17.0805556,0.185197368 16.7886111,0.170394737 C16.4958333,0.149671053 16.1602778,0.154276316 15.7955556,0.192434211 C15.4425,0.244078947 15.0861111,0.352631579 14.7022222,0.488486842 C14.3219444,0.626973684 13.9738889,0.840131579 13.6055556,1.07335526 C13.2463889,1.31315789 12.9211111,1.60690789 12.5941667,1.92598684 C12.2883333,2.25361842 11.9994444,2.61217105 11.7347222,2.99375 C11.4913889,3.38223684 11.2497222,3.78388158 11.0688889,4.20723684 C10.8791667,4.62828947 10.7175,5.06052632 10.6063889,5.49967105 C10.3669444,6.37006579 10.2894444,7.25756579 10.3055556,8.04375 C10.3213889,8.44210526 10.3536111,8.81151316 10.4069444,9.14934211 C10.4569444,9.48486842 10.5366667,9.79375 10.6008333,10.0414474 C10.6269444,10.1601974 10.6633333,10.2703947 10.6983333,10.3684211 C10.7477778,10.2328947 10.8005556,10.0875 10.8616667,9.92828947 C11.1625,9.14473684 11.6030556,8.12203947 12.1280556,7.15855263 C12.3888889,6.67796053 12.6761111,6.21677632 12.9591667,5.79934211 C13.1094444,5.59802632 13.2563889,5.40427632 13.3927778,5.21973684 C13.5386111,5.04901316 13.6794444,4.88519737 13.8088889,4.73782895 C13.9505556,4.60065789 14.0769444,4.47730263 14.19,4.36809211 C14.2994444,4.25164474 14.4152778,4.18125 14.5008333,4.11184211 C14.6766667,3.97467105 14.7763889,3.89868421 14.7763889,3.89868421 C14.7763889,3.89868421 14.6811111,3.98651316 14.5141667,4.13618421 C14.4341667,4.21546053 14.3277778,4.29440789 14.225,4.41875 C14.1225,4.53848684 14.0044444,4.67203947 13.8752778,4.81842105 C13.7591667,4.97664474 13.6319444,5.15065789 13.4969444,5.33289474 C13.3752778,5.52532895 13.2455556,5.72796053 13.1113889,5.93684211 C12.8619444,6.37269737 12.6088889,6.84868421 12.3872222,7.34276316 C11.9386111,8.33092105 11.5752778,9.36842105 11.3338889,10.1582237 C11.2641667,10.3924342 11.2641667,10.3924342 11.2316667,10.5016447 L11.7777778,10.4993421 C11.9336111,10.43125 12.1027778,10.3585526 12.2722222,10.2651316 C12.5236111,10.1375 12.7911111,9.98782895 13.0616667,9.81842105 C13.3336111,9.65131579 13.6,9.45756579 13.8736111,9.25460526 C14.1436111,9.05197368 14.4019444,8.82236842 14.6547222,8.58684211 C14.8977778,8.34375 15.1447222,8.09868421 15.3644444,7.82894737 L15.3644444,7.82894737 L15.3644444,7.82894737 Z" id="Shape"></path>
                    </g>
                </g>
            </g>
        </g>
    </g>
</svg>