<?xml version="1.0" encoding="UTF-8" standalone="no"?>
<svg width="25px" height="25px" viewBox="0 0 25 25" version="1.1" xmlns="http://www.w3.org/2000/svg" xmlns:xlink="http://www.w3.org/1999/xlink" xmlns:sketch="http://www.bohemiancoding.com/sketch/ns">
    <!-- Generator: Sketch 3.5.1 (25234) - http://www.bohemiancoding.com/sketch -->
    <title>Slice 1</title>
    <desc>Created with Sketch.</desc>
    <defs></defs>
    <g id="Page-1" stroke="none" stroke-width="1" fill="none" fill-rule="evenodd" sketch:type="MSPage">
        <g id="sprig2" sketch:type="MSLayerGroup">
            <g id="Group" sketch:type="MSShapeGroup">
                <path d="M4.96578947,11.2835744 C4.01635707,12.2133264 3.42812178,13.5123967 3.42812178,14.9483213 C3.42812178,16.381689 4.01635707,17.6807851 4.96578947,18.6105372 C5.1747936,18.8171488 5.5127451,18.8171488 5.72174923,18.6105372 C6.67118163,17.6807851 7.25941692,16.381689 7.25941692,14.9483213 C7.25941692,13.5123709 6.66860165,12.2158833 5.72174923,11.2861312 C5.5127451,11.0769628 5.1747936,11.0769628 4.96578947,11.2835744 L4.96578947,11.2835744 Z" id="Shape" fill="#F9B129"></path>
                <path d="M10.0561146,17.7453771 C8.62422601,17.7453771 7.32647059,18.33422 6.39767802,19.2846333 C6.19127967,19.4938275 6.19127967,19.8321539 6.39767802,20.0413481 C7.32907637,20.9917614 8.62422601,21.5806302 10.0561146,21.5806302 C11.4905831,21.5806302 12.7857327,20.9917614 13.7170795,20.0413481 C13.9234778,19.8295713 13.9234778,19.4938275 13.7170795,19.2846333 C12.7831527,18.3341942 11.4880031,17.7453771 10.0561146,17.7453771 L10.0561146,17.7453771 Z" id="Shape" fill="#F9B129"></path>
                <path d="M8.66808566,7.57747934 C7.71862745,8.5072314 7.13039216,9.80630165 7.13039216,11.2422262 C7.13039216,12.675594 7.71862745,13.9746901 8.66808566,14.9044421 C8.87706398,15.1110537 9.21501548,15.1110537 9.42401961,14.9044421 C10.373452,13.9746901 10.9616873,12.675594 10.9616873,11.2422262 C10.9616873,9.80627583 10.3708978,8.50978822 9.42401961,7.58003616 C9.21501548,7.37086777 8.87706398,7.37086777 8.66808566,7.57747934 L8.66808566,7.57747934 Z" id="Shape" fill="#F9B129"></path>
                <path d="M17.4167957,15.5785124 C16.4854231,14.6280992 15.1902735,14.0392562 13.7583849,14.0392562 C12.3264964,14.0392562 11.0287668,14.6280992 10.0999742,15.5785124 C9.89357585,15.7877066 9.89357585,16.1260331 10.0999742,16.3352273 C11.0313467,17.2856405 12.3264964,17.8745093 13.7583849,17.8745093 C15.1928535,17.8745093 16.4880031,17.2856405 17.4193498,16.3352273 C17.623194,16.1260331 17.623194,15.7902893 17.4167957,15.5785124 L17.4167957,15.5785124 Z" id="Shape" fill="#F9B129"></path>
                <path d="M13.12629,3.87396694 C12.9172859,3.66735537 12.5793344,3.66735537 12.370356,3.87396694 C11.4208978,4.80371901 10.8326625,6.10281508 10.8326625,7.53873967 C10.8326625,8.97210744 11.4208978,10.2711777 12.370356,11.2009298 C12.5793344,11.4075413 12.9172859,11.4075413 13.12629,11.2009298 C14.0757224,10.2711777 14.6639577,8.97210744 14.6639577,7.53873967 C14.6639577,6.10020661 14.0757224,4.80371901 13.12629,3.87396694 L13.12629,3.87396694 Z" id="Shape" fill="#F9B129"></path>
                <path d="M17.4580495,10.333187 C16.026161,10.333187 14.7284314,10.92203 13.7996388,11.8724432 C13.5932405,12.0816374 13.5932405,12.4199638 13.7996388,12.6291581 C14.7310372,13.5795713 16.026161,14.1684401 17.4580495,14.1684401 C18.8925439,14.1684401 20.1876935,13.5795713 21.1190402,12.6291581 C21.3254386,12.4173812 21.3254386,12.0816374 21.1190402,11.8724432 C20.1876935,10.9245868 18.8925439,10.333187 17.4580495,10.333187 L17.4580495,10.333187 Z" id="Shape" fill="#F9B129"></path>
                <path d="M16.8285604,0.167871901 C16.6195562,-0.0387396694 16.2816047,-0.0387396694 16.0726264,0.167871901 C15.1231682,1.09762397 14.5349329,2.39672004 14.5349329,3.83264463 C14.5349329,5.2660124 15.1231682,6.56508264 16.0726264,7.49483471 C16.2816047,7.70144628 16.6195562,7.70144628 16.8285604,7.49483471 C17.7779928,6.56508264 18.3662281,5.2660124 18.3662281,3.83264463 C18.3662281,2.39672004 17.7754128,1.09762397 16.8285604,0.167871901 L16.8285604,0.167871901 Z" id="Shape" fill="#F9B129"></path>
                <path d="M21.1603199,6.62709194 C19.7284314,6.62709194 18.4307018,7.21593492 17.5019092,8.16634814 C17.2955108,8.37556818 17.2955108,8.7138688 17.5019092,8.92306302 C18.4333075,9.87350207 19.7284314,10.462345 21.1603199,10.462345 C22.5948142,10.462345 23.8899639,9.87350207 24.8213106,8.92306302 C25.027709,8.71131198 25.027709,8.37556818 24.8213106,8.16634814 C23.8899639,7.21849174 22.5948142,6.62964876 21.1603199,6.62709194 L21.1603199,6.62709194 Z" id="Shape" fill="#F9B129"></path>
                <path d="M20.6804696,1.59610021 C19.6665377,2.61107955 19.1686017,3.94369835 19.1815015,5.2763688 C19.1840815,5.57076446 19.4214396,5.8083936 19.7155315,5.81095041 C21.0442208,5.82386364 22.3780702,5.32541322 23.3920021,4.31043388 C24.4059598,3.29545455 24.9038958,1.96022727 24.8909959,0.630165289 C24.8883901,0.335743802 24.6510578,0.0981404959 24.3569401,0.0955578512 C23.0282508,0.0826446281 21.6944014,0.581095041 20.6804696,1.59610021 L20.6804696,1.59610021 Z" id="Shape" fill="#F9B129"></path>
                <path d="M0.554024768,24.7623967 C0.855882353,25.0645661 1.34607843,25.0645661 1.64793602,24.7623967 L5.2005676,21.2061209 C5.50242518,20.9039514 5.50242518,20.413249 5.2005676,20.1110795 L4.87291022,19.7830837 C4.57105263,19.4809143 4.08085655,19.4809143 3.77899897,19.7830837 L0.226393189,23.3368027 C-0.0754643963,23.6389463 -0.0754643963,24.1296488 0.226393189,24.4318182 L0.554024768,24.7623967 L0.554024768,24.7623967 Z" id="Shape" fill="#1E824C"></path>
            </g>
        </g>
    </g>
</svg>