<?xml version="1.0" encoding="UTF-8" standalone="no"?>
<svg width="25px" height="25px" viewBox="0 0 25 25" version="1.1" xmlns="http://www.w3.org/2000/svg" xmlns:xlink="http://www.w3.org/1999/xlink" xmlns:sketch="http://www.bohemiancoding.com/sketch/ns">
    <!-- Generator: Sketch 3.5.1 (25234) - http://www.bohemiancoding.com/sketch -->
    <title>Slice 1</title>
    <desc>Created with Sketch.</desc>
    <defs></defs>
    <g id="Page-1" stroke="none" stroke-width="1" fill="none" fill-rule="evenodd" sketch:type="MSPage">
        <g id="content-book-1" sketch:type="MSLayerGroup">
            <g id="Page-1" sketch:type="MSShapeGroup">
                <path d="M20,0.00147058824 L15,0.00147058824 C14.6675,0.00147058824 14.35125,0.155882353 14.11625,0.432352941 L12.5,2.33235294 L10.88375,0.430882353 C10.64875,0.155882353 10.3325,0.00147058824 10,0.00147058824 L5,0.00147058824 C4.30875,0.00147058824 3.75,0.660294118 3.75,1.47205882 L3.75,14.7073529 C3.75,15.5191176 4.30875,16.1779412 5,16.1779412 L9.4825,16.1779412 L11.61625,18.6882353 C11.86,18.975 12.18,19.1176471 12.5,19.1176471 C12.82,19.1176471 13.14,18.9735294 13.38375,18.6867647 L15.5175,16.1764706 L20,16.1764706 C20.69125,16.1764706 21.25,15.5176471 21.25,14.7058824 L21.25,1.47058824 C21.25,0.660294118 20.69125,0.00147058824 20,0.00147058824" id="Fill-1" fill="#ECF0F1"></path>
                <path d="M12.5,25 C12.23625,25 11.9725,24.9029412 11.75,24.7058824 L7.0825,20.5882353 L1.25,20.5882353 C0.55875,20.5882353 0,19.9294118 0,19.1176471 L0,2.94117647 L2.5,2.94117647 L2.5,17.6470588 L7.5,17.6470588 C7.77125,17.6470588 8.03375,17.75 8.25,17.9411765 L12.5,21.6911765 L16.75,17.9411765 C16.96625,17.75 17.22875,17.6470588 17.5,17.6470588 L22.5,17.6470588 L22.5,2.94117647 L25,2.94117647 L25,19.1176471 C25,19.9294118 24.44125,20.5882353 23.75,20.5882353 L17.9175,20.5882353 L13.25,24.7058824 C13.0275,24.9029412 12.76375,25 12.5,25" id="Fill-3" fill="#757575"></path>
            </g>
        </g>
    </g>
</svg>