<?xml version="1.0" encoding="UTF-8" standalone="no"?>
<svg width="24px" height="24px" viewBox="0 0 24 24" version="1.1" xmlns="http://www.w3.org/2000/svg" xmlns:xlink="http://www.w3.org/1999/xlink" xmlns:sketch="http://www.bohemiancoding.com/sketch/ns">
    <!-- Generator: Sketch 3.5.1 (25234) - http://www.bohemiancoding.com/sketch -->
    <title>Slice 1</title>
    <desc>Created with Sketch.</desc>
    <defs></defs>
    <g id="Page-1" stroke="none" stroke-width="1" fill="none" fill-rule="evenodd" sketch:type="MSPage">
        <g id="drink-bottle-2" sketch:type="MSLayerGroup">
            <g id="Frame_-_24px" sketch:type="MSShapeGroup">
                <rect id="Rectangle-path" x="0" y="0" width="24" height="24"></rect>
            </g>
            <g id="Filled_Icons" transform="translate(8.000000, 2.000000)" sketch:type="MSShapeGroup">
                <g id="Group">
                    <path d="M6,4 L2,4 L2,5.607 C1.367,6.322 0,8.087 0,10 L0,19 C0,19.552 0.447,20 1,20 L7,20 C7.553,20 8,19.552 8,19 L8,10 C8,8.087 6.633,6.322 6,5.607 L6,4 L6,4 Z M7,11 L7,15 L1,15 L1,11 L7,11 L7,11 Z" id="Shape" fill="#AADFF4"></path>
                    <path d="M6,3 L6,1 C6,0.448 5.553,0 5,0 L3,0 C2.447,0 2,0.448 2,1 L2,3 L6,3 L6,3 Z" id="Shape" fill="#336682"></path>
                </g>
            </g>
        </g>
    </g>
</svg>