<?xml version="1.0" encoding="UTF-8" standalone="no"?>
<svg width="25px" height="25px" viewBox="0 0 25 25" version="1.1" xmlns="http://www.w3.org/2000/svg" xmlns:xlink="http://www.w3.org/1999/xlink" xmlns:sketch="http://www.bohemiancoding.com/sketch/ns">
    <!-- Generator: Sketch 3.5.1 (25234) - http://www.bohemiancoding.com/sketch -->
    <title>Slice 1</title>
    <desc>Created with Sketch.</desc>
    <defs></defs>
    <g id="Page-1" stroke="none" stroke-width="1" fill="none" fill-rule="evenodd" sketch:type="MSPage">
        <g id="supermarket89" sketch:type="MSLayerGroup" fill="#AADFF4">
            <path d="M24.8850592,13.4774758 C24.8744822,13.0005435 24.8669379,12.6559179 24.8669379,12.4827899 C24.8669379,11.0464372 24.4178254,2.8298913 24.366568,1.8977657 C24.3306953,1.24371981 24.2997041,0.678804348 23.810355,0.320833333 C23.4542899,0.0602657005 22.9505178,-0.0325483092 22.1258136,0.0111111111 C20.7868343,0.081763285 18.4053994,0.332125604 16.3042899,0.55307971 C15.6099112,0.626086957 14.931287,0.697463768 14.3444527,0.75634058 C14.3388314,0.756823671 14.3332101,0.757427536 14.3275148,0.758031401 C13.483432,0.842693237 12.8321006,0.901207729 12.6022929,0.901207729 L12.3467456,0.901207729 C11.956287,0.901207729 10.3485947,0.732125604 8.64659763,0.553140097 C6.55991124,0.333756039 4.19482249,0.0850845411 2.85051775,0.0125603865 C2.22751479,-0.0210748792 1.59001479,-0.00748792271 1.14681953,0.316183575 C0.734171598,0.61763285 0.627588757,1.07807971 0.594600592,1.67669082 C0.573668639,2.05597826 0.0821745562,10.9839372 0.0821745562,12.4827899 C0.0821745562,12.6558575 0.074556213,13.0006039 0.0639792899,13.4777778 C0.0107248521,15.8838164 -0.0999260355,20.8903382 0.291272189,23.0905797 C0.52647929,24.4131643 1.18054734,24.9584541 2.5862426,24.9584541 C2.7033284,24.9584541 2.82573964,24.9546498 2.95347633,24.9472222 C4.0183432,24.8852053 5.6614645,24.7232488 7.29955621,24.5533816 C7.30428994,24.5528986 7.30902367,24.5524155 7.31383136,24.5519324 C7.76235207,24.5053744 8.2102071,24.4582729 8.64578402,24.4124396 C10.3481509,24.2334541 11.9559911,24.064372 12.3465976,24.064372 L12.602145,24.064372 C12.9928254,24.064372 14.6011834,24.2335145 16.304068,24.4125604 C18.2736686,24.6196256 20.5061391,24.8542874 21.8777367,24.9400966 C23.6460799,25.0507246 24.3985947,24.5488527 24.6578402,23.0891304 C25.0488905,20.8880435 24.9383136,15.8828502 24.8850592,13.4774758 L24.8850592,13.4774758 Z M23.6331361,22.967814 C23.4508136,23.9945048 23.1840976,24.1736111 21.9569527,24.0971618 C20.6119083,24.0130435 18.3935651,23.7797705 16.4363905,23.5740338 C14.3426036,23.3538647 13.0372781,23.2189614 12.6022189,23.2189614 L12.3466716,23.2189614 C12.25,23.2189614 12.110503,23.2256039 11.9288462,23.2383454 C12.3159024,23.1047101 12.6694527,22.9785628 12.9843935,22.8661836 C13.5983728,22.6470411 14.2331361,22.4205314 14.4075444,22.4032609 C14.6892751,22.3992754 14.9161243,22.2115942 14.9161243,21.9806159 C14.9161243,21.7471618 14.6843195,21.5579106 14.3983728,21.5579106 C14.0778107,21.5579106 13.633358,21.7119565 12.5696746,22.0915459 C11.2876479,22.5489734 9.35347633,23.2391908 7.14275148,23.7173913 C5.52758876,23.8847826 3.91442308,24.0436594 2.87973373,24.1039251 C1.77130178,24.1687802 1.49341716,23.9669082 1.31590237,22.9690821 C0.93683432,20.8368357 1.05059172,15.6905797 1.09918639,13.4929952 C1.10983728,13.011413 1.11752959,12.6635266 1.11752959,12.4827899 C1.11752959,11.0027174 1.60798817,2.09323671 1.62892012,1.71467391 C1.64408284,1.43900966 1.68224852,1.0593599 1.83713018,0.946195652 C1.92810651,0.879710145 2.13446746,0.846316425 2.45236686,0.846316425 C2.55140533,0.846316425 2.66139053,0.849577295 2.78202663,0.856038647 C4.0941568,0.926871981 6.44230769,1.17379227 8.51405325,1.39166667 C9.5375,1.49927536 10.3724112,1.58653382 11.0093195,1.64758454 C10.0905325,1.94160628 9.29164201,2.23176329 8.65184911,2.46407005 C8.05251479,2.6817029 7.4329142,2.90664251 7.26065089,2.92457729 C6.97921598,2.92886473 6.75273669,3.11648551 6.75273669,3.34722222 C6.75273669,3.58067633 6.98454142,3.76992754 7.27048817,3.76992754 C7.59090237,3.76992754 8.02773669,3.61594203 9.07263314,3.23647343 C10.3498521,2.77270531 12.2767751,2.07294686 14.4970414,1.59257246 C15.0403107,1.53798309 15.6878698,1.47016908 16.4362426,1.39148551 C18.5220414,1.17216184 20.8861686,0.923611111 22.1922337,0.854649758 C22.8058432,0.822282609 23.0349852,0.888768116 23.1189349,0.950301932 C23.2843195,1.07131643 23.3085059,1.51062802 23.3317308,1.93550725 C23.5172337,5.31105072 23.8310651,11.3310386 23.8310651,12.4826691 C23.8310651,12.6633454 23.8387574,13.0112319 23.8494083,13.4926329 C23.8982988,15.6897343 24.0120562,20.8346618 23.6331361,22.967814 L23.6331361,22.967814 Z M15.6237426,11.4885266 L13.5099852,12.4849638 L15.6237426,13.4813406 L17.916568,12.9361715 C18.1912722,12.8707126 18.4785503,12.9997585 18.558432,13.2238527 C18.6383876,13.4479469 18.4806213,13.6826087 18.2060651,13.7478865 L16.8654586,14.0666667 L18.195932,14.6937802 C18.4435651,14.8105676 18.5284024,15.0690821 18.385503,15.271256 C18.2424556,15.47343 17.9258876,15.5426329 17.6781805,15.4260266 L16.347855,14.798913 L16.6799556,15.9060386 C16.748003,16.1327899 16.5779586,16.3615942 16.3002219,16.4171498 C16.023003,16.4724638 15.7421598,16.3339372 15.6741864,16.1071256 L15.1060651,14.2136473 L12.9921598,13.2172101 L12.9921598,15.2100242 L14.716716,16.5584541 C14.9232249,16.7199275 14.9303254,16.9875 14.7325444,17.156099 C14.5346893,17.3247585 14.2070266,17.3304348 14.0005178,17.1690217 L12.9921598,16.3805556 L12.9921598,17.6347826 C12.9921598,17.8682367 12.7602811,18.0574879 12.4744083,18.0574879 C12.1885355,18.0574879 11.9566568,17.8682367 11.9566568,17.6347826 L11.9566568,16.3806763 L10.9482249,17.1690217 C10.741716,17.3304952 10.4138314,17.3247585 10.2161982,17.1560386 C10.0184172,16.9874396 10.0255178,16.7198671 10.2320266,16.5584541 L11.9565828,15.2102053 L11.9565828,13.2172101 L9.84267751,14.213587 L9.27455621,16.1073068 C9.20658284,16.334058 8.9262574,16.4730676 8.64852071,16.4173309 C8.37078402,16.3617754 8.20081361,16.132971 8.26886095,15.9062198 L8.6010355,14.7988527 L7.27056213,15.4260266 C7.02307692,15.5426932 6.70628698,15.4734903 6.56331361,15.271256 C6.42034024,15.0690821 6.50517751,14.8105676 6.75281065,14.6937802 L8.08306213,14.0667874 L6.74275148,13.7480072 C6.46819527,13.6827295 6.31050296,13.4480676 6.39045858,13.223913 C6.4704142,12.9997585 6.75761834,12.8710145 7.03239645,12.9362923 L9.32470414,13.4814614 L11.4388314,12.4849638 L9.32470414,11.4884662 L7.03232249,12.0335749 C6.75761834,12.0986715 6.47034024,11.9700483 6.39045858,11.7459541 C6.31050296,11.5217995 6.46819527,11.2871377 6.74275148,11.2218599 L8.08306213,10.9031401 L6.75281065,10.276087 C6.50517751,10.1592995 6.42034024,9.90078502 6.56331361,9.69861111 C6.70628698,9.49637681 7.02300296,9.42735507 7.27056213,9.54384058 L8.60096154,10.1710145 L8.26878698,9.06370773 C8.20073964,8.83695652 8.37071006,8.60815217 8.64844675,8.55259662 C8.92633136,8.49710145 9.20650888,8.63586957 9.27448225,8.86262077 L9.84260355,10.7562802 L11.9565089,11.752657 L11.9565089,9.75960145 L10.2319527,8.41129227 C10.0254438,8.24981884 10.0183432,7.98230676 10.2161243,7.81364734 C10.4137574,7.64504831 10.741568,7.63925121 10.9481509,7.80072464 L11.9565828,8.58913043 L11.9565828,7.33514493 C11.9565828,7.10169082 12.1883876,6.91243961 12.4743343,6.91243961 C12.7602811,6.91243961 12.9920858,7.10169082 12.9920858,7.33514493 L12.9920858,8.58931159 L14.0004438,7.80078502 C14.2069527,7.63943237 14.5346893,7.6451087 14.7324704,7.81370773 C14.9302515,7.98230676 14.9231509,8.24993961 14.716642,8.41135266 L12.9920858,9.759843 L12.9920858,11.7527174 L15.1059911,10.7562802 L15.6741124,8.86280193 C15.7420858,8.63599034 16.0224852,8.49710145 16.3001479,8.55277778 C16.5778846,8.60833333 16.747929,8.83713768 16.6798817,9.06388889 L16.3477811,10.1710145 L17.6781065,9.54390097 C17.9258876,9.4272343 18.2423817,9.4964372 18.385429,9.6986715 C18.5284024,9.90084541 18.4434911,10.1593599 18.195858,10.2761473 L16.8653846,10.9033213 L18.2060651,11.2221014 C18.4805473,11.2873792 18.6383136,11.5220411 18.558358,11.7461957 C18.4784024,11.9702899 18.1909763,12.0990942 17.9164201,12.0338164 L15.6237426,11.4885266 L15.6237426,11.4885266 Z" id="XMLID_83_" sketch:type="MSShapeGroup"></path>
        </g>
    </g>
</svg>