<?xml version="1.0" encoding="UTF-8" standalone="no"?>
<svg width="25px" height="25px" viewBox="0 0 25 25" version="1.1" xmlns="http://www.w3.org/2000/svg" xmlns:xlink="http://www.w3.org/1999/xlink" xmlns:sketch="http://www.bohemiancoding.com/sketch/ns">
    <!-- Generator: Sketch 3.5.1 (25234) - http://www.bohemiancoding.com/sketch -->
    <title>Slice 1</title>
    <desc>Created with Sketch.</desc>
    <defs></defs>
    <g id="Page-1" stroke="none" stroke-width="1" fill="none" fill-rule="evenodd" sketch:type="MSPage">
        <g id="food-banana" sketch:type="MSLayerGroup">
            <g id="Frame_-_24px" sketch:type="MSShapeGroup">
                <rect id="Rectangle-path" x="0.999" y="0.998" width="24.001" height="24.001"></rect>
            </g>
            <g id="Filled_Icons" transform="translate(3.000000, 3.000000)" fill="#F7CA18" sketch:type="MSShapeGroup">
                <path d="M18.185,4.383 L18.97,1.243 L17.029,0.757 L16.248,3.885 C14.089,3.772 13.012,5.095 11.85,6.854 C11.207,7.828 10.6,8.747 9.684,9.052 C4.866,10.658 2.237,10.029 2.237,10.029 C1.899,9.947 1.541,10.047 1.294,10.294 L0.294,11.294 C0.066,11.522 -0.038,11.847 0.015,12.166 C0.025,12.233 1.254,19 10,19 C17.895,19 20,12.715 20,9 C20,7.342 19.998,5.332 18.185,4.383 L18.185,4.383 Z M10,17 C5.758,17 3.733,15.184 2.785,13.703 C4.137,14.48 6.316,15.469 8.67,15.469 C9.399,15.469 10.144,15.374 10.886,15.149 C13.621,14.319 15.661,11.94 16.949,8.077 L15.051,7.444 C13.983,10.653 12.388,12.6 10.313,13.233 C8.051,13.925 5.604,12.957 4.09,12.137 C5.487,12.101 7.604,11.853 10.317,10.949 C11.889,10.425 12.755,9.113 13.519,7.956 C14.586,6.34 15.219,5.584 16.758,5.97 C17.854,6.244 18,6.828 18,9 C18,9.819 17.775,17 10,17 L10,17 Z" id="Shape"></path>
            </g>
        </g>
    </g>
</svg>