<?xml version="1.0" encoding="UTF-8" standalone="no"?>
<svg width="25px" height="25px" viewBox="0 0 25 25" version="1.1" xmlns="http://www.w3.org/2000/svg" xmlns:xlink="http://www.w3.org/1999/xlink" xmlns:sketch="http://www.bohemiancoding.com/sketch/ns">
    <!-- Generator: Sketch 3.5.1 (25234) - http://www.bohemiancoding.com/sketch -->
    <title>Slice 1</title>
    <desc>Created with Sketch.</desc>
    <defs></defs>
    <g id="Page-1" stroke="none" stroke-width="1" fill="none" fill-rule="evenodd" sketch:type="MSPage">
        <g id="kids1" sketch:type="MSLayerGroup" fill="#141414">
            <g id="Group" sketch:type="MSShapeGroup">
                <path d="M6.42,9.43295455 C8.191,9.43295455 9.625,7.80227273 9.625,5.7875 C9.625,4.53181818 10.014,3.38181818 9.16,2.72954545 C8.648,2.33295455 6.4,2.14545455 5.736,2.14545455 C4.946,2.14545455 3.919,2.87727273 3.36,3.41704545 C2.665,4.08409091 3.213,4.67159091 3.213,5.78636364 C3.213,7.80227273 4.646,9.43295455 6.42,9.43295455 L6.42,9.43295455 Z M4.186,5.43068182 C4.775,5.30909091 5.175,5.52954545 5.175,5.52954545 L6.159,4.98522727 C6.159,4.98522727 5.658,5.80795455 6.108,5.52954545 C7.11,5.14772727 8.231,5.30681818 8.801,5.43409091 C8.821,5.57613636 8.839,5.72159091 8.839,5.87272727 C8.839,7.37272727 7.791,8.58522727 6.49,8.58522727 C5.196,8.58522727 4.147,7.37272727 4.147,5.87272727 C4.147,5.72159091 4.165,5.57613636 4.186,5.43068182 L4.186,5.43068182 Z" id="Shape"></path>
                <path d="M22.066,5.27613636 C22.051,5.06818182 22.036,4.86136364 21.996,4.66136364 C21.869,3.38409091 20.863,0.788636364 17.976,0.865909091 C15.488,0.932954545 14.945,3.06136364 14.814,4.35681818 C14.726,4.675 14.669,5.00795455 14.65,5.35454545 C11.414,5.99659091 11.77,9.72840909 13.746,9.79204545 C13.558,7.84318182 14.376,6.67272727 14.691,6.29659091 C14.982,8.30909091 16.511,9.85568182 18.363,9.85568182 C20.119,9.85568182 21.585,8.46590909 21.982,6.60795455 C22.285,7.21477273 22.794,8.45795455 22.67,9.79318182 C25.783,9.7625 24.251,5.71818182 22.066,5.27613636 L22.066,5.27613636 Z M18.363,8.65568182 C16.908,8.65568182 15.724,7.32386364 15.691,5.67727273 C16.222,5.45795455 16.616,4.4125 16.616,4.4125 C16.616,4.4125 16.931,4.53522727 16.931,5.71590909 C17.482,5.93409091 18.439,3.88181818 18.439,3.88181818 L18.439,5.49886364 C19.046,5.6875 20.96,5.4375 20.96,5.4375 L21.031,5.50568182 C21.032,5.53977273 21.04,5.575 21.04,5.61022727 C21.042,7.28977273 19.842,8.65568182 18.363,8.65568182 L18.363,8.65568182 Z" id="Shape"></path>
                <path d="M19.143,9.96477273 L17.568,9.96477273 L16.253,9.96477273 L12.402,15.2375 L8.675,10.0306818 L4.438,10.0306818 L0,15.5670455 L0.93,16.6568182 L4.107,13.5761364 L4.107,19.5511364 L4.744,19.5511364 L4.744,24.0931818 L4.339,24.0931818 L4.339,24.6261364 L6.184,24.6261364 L6.184,24.0931818 L6.184,19.5511364 L6.875,19.5511364 L6.875,24.0931818 L6.875,24.6261364 L8.716,24.6261364 L8.716,24.0931818 L8.312,24.0931818 L8.312,19.5511364 L9.085,19.5511364 L9.085,13.6886364 L11.625,16.6522727 L12.663,16.3613636 L13.238,16.525 L16.115,12.7829545 L16.279,14.2659091 L13.607,19.4840909 L16.689,19.4840909 L16.689,24.0272727 L16.284,24.0272727 L16.284,24.5556818 L18.127,24.5556818 L18.127,24.0272727 L18.129,24.0272727 L18.129,19.4840909 L18.818,19.4840909 L18.818,24.0272727 L18.818,24.5556818 L20.662,24.5556818 L20.662,24.0272727 L20.257,24.0272727 L20.257,19.4840909 L22.646,19.4840909 L20.292,14.2659091 L20.421,12.4409091 L22.67,15.8659091 L24.16,15.4443182 L20.594,9.96477273 L19.143,9.96477273 Z" id="Shape"></path>
            </g>
        </g>
    </g>
</svg>