<?xml version="1.0" encoding="UTF-8" standalone="no"?>
<svg width="25px" height="25px" viewBox="0 0 25 25" version="1.1" xmlns="http://www.w3.org/2000/svg" xmlns:xlink="http://www.w3.org/1999/xlink" xmlns:sketch="http://www.bohemiancoding.com/sketch/ns">
    <!-- Generator: Sketch 3.5.1 (25234) - http://www.bohemiancoding.com/sketch -->
    <title>Slice 1</title>
    <desc>Created with Sketch.</desc>
    <defs></defs>
    <g id="Page-1" stroke="none" stroke-width="1" fill="none" fill-rule="evenodd" sketch:type="MSPage">
        <g id="lego6" sketch:type="MSLayerGroup" fill="#C0392B">
            <g id="Group" sketch:type="MSShapeGroup">
                <path d="M20.8432692,9.51538462 C20.6432692,9.51538462 20.4442308,9.55576923 20.2836538,9.79903846 C19.8836538,10.325 18.7663462,13.4038462 18.8057692,14.0105769 C18.8057692,14.2144231 18.9259615,14.4153846 19.2057692,14.4153846 C19.4855769,14.4153846 19.6846154,14.2144231 19.8442308,13.9288462 C20.1653846,13.3634615 21.1634615,10.6086538 21.2019231,9.92019231 C21.2019231,9.75769231 21.1634615,9.51538462 20.8432692,9.51538462 L20.8432692,9.51538462 Z" id="Shape"></path>
                <path d="M20.1,0 L4.9,0 C2.20480769,0 0,2.20480769 0,4.89807692 L0,20.1028846 C0,22.7951923 2.20480769,25 4.9,25 L20.1009615,25 C22.7951923,25 25,22.7951923 25,20.1019231 L25,4.89807692 C25,2.20480769 22.7951923,0 20.1,0 L20.1,0 Z M3.26826923,16.3192308 C2.50961538,16.3192308 1.83076923,15.9548077 1.83076923,15.0644231 C1.79134615,13.4836538 3.34711538,9.83846154 4.10769231,8.66442308 C4.46634615,8.09711538 4.86634615,7.81346154 5.54423077,7.81346154 C6.18461538,7.81346154 6.34423077,8.13846154 6.30288462,8.50288462 C6.30288462,9.55576923 4.62692308,12.7557692 4.06730769,14.0105769 C5.38461538,13.8076923 5.70480769,14.2538462 5.66346154,14.7403846 C5.54519231,16.0769231 4.34615385,16.3596154 3.26826923,16.3192308 L3.26826923,16.3192308 Z M8.34134615,12.7961538 C8.2625,13.0394231 8.10192308,13.5259615 7.98173077,14.0528846 C8.42211538,13.9711538 8.74038462,13.8903846 9.29903846,13.8903846 C9.9,13.8903846 10.3384615,14.1730769 10.3384615,14.7 C10.3384615,15.9971154 8.9,16.3605769 7.94230769,16.3605769 C6.86346154,16.3605769 5.94519231,15.7538462 5.94519231,14.5788462 C5.94519231,13.1605769 6.66346154,11.0548077 7.38269231,9.67692308 C8.22115385,7.93557692 9.10096154,7.69230769 10.6173077,7.69230769 C11.2576923,7.69230769 12.0557692,8.01730769 12.0557692,8.625 C12.0557692,9.51634615 11.2961538,9.84038462 10.5788462,9.88076923 C10.2586538,9.92115385 9.77884615,9.92115385 9.49903846,9.92115385 C9.49903846,9.92115385 9.26057692,10.2855769 9.02115385,10.9336538 C10.3384615,10.7721154 10.9375,11.0557692 10.6971154,11.8663462 C10.3778846,12.9173077 9.45961538,12.9980769 8.34134615,12.7961538 L8.34134615,12.7961538 Z M16.4884615,12.9173077 C16.0884615,14.8201923 14.7721154,16.3596154 12.8548077,16.3596154 C11.5365385,16.3596154 10.7384615,15.6307692 10.7384615,14.2942308 C10.7384615,13.3230769 11.2173077,11.825 11.5759615,10.9326923 C12.3759615,9.07019231 13.2144231,7.73461538 15.3288462,7.73461538 C16.6096154,7.73461538 17.6076923,8.22019231 17.4471154,9.43653846 C17.3278846,10.3259615 16.8884615,10.8125 16.1298077,10.8932692 C15.8894231,10.8932692 14.9721154,10.8932692 15.2913462,10.0028846 C15.3711538,9.71923077 15.4509615,9.475 14.9721154,9.475 C14.6115385,9.475 14.3730769,9.71923077 14.2125,9.9625 C13.8125,10.5298077 12.9740385,12.7567308 12.8548077,13.6471154 C12.7346154,14.2951923 13.0134615,14.4163462 13.2942308,14.4163462 C13.7730769,14.4163462 14.2923077,13.8913462 14.4923077,13.0798077 C14.4923077,13.0798077 13.5740385,13.0403846 13.8125,12.2701923 C14.0528846,11.4605769 14.5317308,11.2980769 15.2913462,11.2576923 C16.7682692,11.2163462 16.6096154,12.3096154 16.4884615,12.9173077 L16.4884615,12.9173077 Z M22.9990385,11.0538462 C22.7596154,12.1884615 22.2403846,13.525 21.7230769,14.4961538 C20.8028846,16.1567308 19.725,16.3596154 18.8057692,16.3596154 C17.8471154,16.3596154 16.7692308,15.9961538 16.7692308,14.4961538 C16.7692308,13.4432692 17.2086538,11.9461538 17.6086538,10.9730769 C18.2865385,9.19038462 18.9653846,7.73365385 21.1211538,7.77403846 C23.6384615,7.77403846 23.1990385,10.0807692 22.9990385,11.0538462 L22.9990385,11.0538462 Z" id="Shape"></path>
            </g>
        </g>
    </g>
</svg>