<?xml version="1.0" encoding="UTF-8" standalone="no"?>
<svg width="24px" height="25px" viewBox="0 0 24 25" version="1.1" xmlns="http://www.w3.org/2000/svg" xmlns:xlink="http://www.w3.org/1999/xlink" xmlns:sketch="http://www.bohemiancoding.com/sketch/ns">
    <!-- Generator: Sketch 3.5.1 (25234) - http://www.bohemiancoding.com/sketch -->
    <title>Slice 1</title>
    <desc>Created with Sketch.</desc>
    <defs></defs>
    <g id="Page-1" stroke="none" stroke-width="1" fill="none" fill-rule="evenodd" sketch:type="MSPage">
        <g id="food-carrot" sketch:type="MSLayerGroup">
            <g id="Frame_-_24px" sketch:type="MSShapeGroup">
                <rect id="Rectangle-path" x="0" y="0" width="24" height="24.001"></rect>
            </g>
            <g id="Filled_Icons" transform="translate(3.000000, 1.000000)" sketch:type="MSShapeGroup">
                <g id="Group">
                    <path d="M14.28,1.394 L12.442,0.606 L10.756,4.539 L12.279,6.062 L14.28,1.394 Z" id="Shape" fill="#1E824C"></path>
                    <rect id="Rectangle-path" fill="#1E824C" transform="translate(15.005471, 5.011070) rotate(135.004051) translate(-15.005471, -5.011070) " x="12.3333082" y="4.01100938" width="5.34432664" height="2.00012225"></rect>
                    <path d="M18.623,5.738 L13.957,7.739 L15.48,9.262 L19.412,7.576 L18.623,5.738 Z" id="Shape" fill="#1E824C"></path>
                    <path d="M11.018,6.172 C9.719,4.874 7.83,6.552 7.529,6.837 L10.356,9.663 L9.295,10.724 L6.565,7.994 C5.565,9.233 3.942,11.33 2.667,13.389 L4.649,15.371 L3.589,16.432 L1.888,14.729 C0.906,16.556 0.398,18.179 1.119,18.901 C2.237,20.019 5.516,18.191 8.368,16.211 L6.467,14.311 L7.528,13.25 L9.605,15.326 C11.599,13.858 13.14,12.538 13.14,12.538 C13.14,12.538 15.262,10.417 13.847,9.002 L11.018,6.172 L11.018,6.172 Z" id="Shape" fill="#F9690E"></path>
                </g>
            </g>
        </g>
    </g>
</svg>