<?xml version="1.0" encoding="UTF-8" standalone="no"?>
<svg width="25px" height="25px" viewBox="0 0 25 25" version="1.1" xmlns="http://www.w3.org/2000/svg" xmlns:xlink="http://www.w3.org/1999/xlink" xmlns:sketch="http://www.bohemiancoding.com/sketch/ns">
    <!-- Generator: Sketch 3.5.1 (25234) - http://www.bohemiancoding.com/sketch -->
    <title>Slice 1</title>
    <desc>Created with Sketch.</desc>
    <defs></defs>
    <g id="Page-1" stroke="none" stroke-width="1" fill="none" fill-rule="evenodd" sketch:type="MSPage">
        <g id="spray-bottle" sketch:type="MSLayerGroup">
            <g id="Frame_-_24px" sketch:type="MSShapeGroup">
                <rect id="Rectangle-path" x="0.001" y="0.001" width="24" height="24.001"></rect>
            </g>
            <g id="Filled_Icons" transform="translate(3.000000, 1.000000)" sketch:type="MSShapeGroup">
                <g id="Group">
                    <circle id="Oval" fill="#AADFF4" cx="12" cy="5" r="1"></circle>
                    <circle id="Oval" fill="#AADFF4" cx="14" cy="3" r="1"></circle>
                    <circle id="Oval" fill="#AADFF4" cx="17" cy="1" r="1"></circle>
                    <circle id="Oval" fill="#AADFF4" cx="17" cy="5" r="1"></circle>
                    <circle id="Oval" fill="#AADFF4" cx="17" cy="9" r="1"></circle>
                    <circle id="Oval" fill="#AADFF4" cx="14" cy="7" r="1"></circle>
                    <path d="M10,4 C10,3.448 9.553,3 9,3 L4,3 C3.666,3 3.353,3.167 3.168,3.445 L1.168,6.445 C0.963,6.752 0.944,7.146 1.118,7.471 C1.293,7.797 1.631,8 2,8 L2.001,8 L8,8 L8.001,8 L8.001,9 L8,9 C8,9.265 8.106,9.519 8.293,9.707 L11.293,12.707 L12.707,11.294 L10,8.586 L10,4 L10,4 Z" id="Shape" fill="#D65F5F"></path>
                    <path d="M7,9.586 L7,9 L3,9 L3,9.586 L0.293,12.293 C0.105,12.481 0,12.735 0,13 L0,20 C0,20.552 0.447,21 1,21 L9,21 C9.553,21 10,20.552 10,20 L10,13 C10,12.735 9.894,12.481 9.707,12.293 L7,9.586 L7,9.586 Z" id="Shape" fill="#AADFF4"></path>
                </g>
            </g>
        </g>
    </g>
</svg>