<?xml version="1.0" encoding="UTF-8" standalone="no"?>
<svg width="24px" height="24px" viewBox="0 0 24 24" version="1.1" xmlns="http://www.w3.org/2000/svg" xmlns:xlink="http://www.w3.org/1999/xlink" xmlns:sketch="http://www.bohemiancoding.com/sketch/ns">
    <!-- Generator: Sketch 3.5.1 (25234) - http://www.bohemiancoding.com/sketch -->
    <title>Slice 1</title>
    <desc>Created with Sketch.</desc>
    <defs></defs>
    <g id="Page-1" stroke="none" stroke-width="1" fill="none" fill-rule="evenodd" sketch:type="MSPage">
        <g id="milk-carton" sketch:type="MSLayerGroup">
            <g id="Frame_-_24px" sketch:type="MSShapeGroup">
                <rect id="Rectangle-path" x="0" y="0" width="24" height="24"></rect>
            </g>
            <g id="Filled_Icons" transform="translate(2.000000, 2.000000)" sketch:type="MSShapeGroup">
                <g id="Group">
                    <path d="M19.48,8 L16.6,4.399 L13,8 L19.48,8 Z" id="Shape" fill="#3498DB"></path>
                    <path d="M15,4 L3.72,4 L0.52,8 L11,8 L15,4 Z" id="Shape" fill="#3498DB"></path>
                    <path d="M16,1 C16,0.448 15.553,0 15,0 L5,0 C4.447,0 4,0.448 4,1 L4,3 L16,3 L16,1 L16,1 Z" id="Shape" fill="#ECF0F1"></path>
                    <path d="M19,20 C19.553,20 20,19.552 20,19 L20,9 L12,9 L12,19.999 L19,20 Z M11,19.999 L11,9 L0,9 L0,19 C0,19.552 0.447,20 1,20 L11,20 L11,19.999 Z M8,15 L2,15 L2,11 L8,11 L8,15 L8,15 Z" id="Shape" fill="#ECF0F1"></path>
                </g>
            </g>
        </g>
    </g>
</svg>