<?xml version="1.0" encoding="UTF-8" standalone="no"?>
<svg width="24px" height="25px" viewBox="0 0 24 25" version="1.1" xmlns="http://www.w3.org/2000/svg" xmlns:xlink="http://www.w3.org/1999/xlink" xmlns:sketch="http://www.bohemiancoding.com/sketch/ns">
    <!-- Generator: Sketch 3.5.1 (25234) - http://www.bohemiancoding.com/sketch -->
    <title>Slice 1</title>
    <desc>Created with Sketch.</desc>
    <defs></defs>
    <g id="Page-1" stroke="none" stroke-width="1" fill="none" fill-rule="evenodd" sketch:type="MSPage">
        <g id="ipod" sketch:type="MSLayerGroup">
            <g id="Frame_-_24px" sketch:type="MSShapeGroup">
                <rect id="Rectangle-path" x="0" y="0.001" width="24" height="24"></rect>
            </g>
            <g id="Filled_Icons" transform="translate(6.000000, 2.000000)" sketch:type="MSShapeGroup">
                <g id="Group">
                    <circle id="Oval" fill="#ECF0F1" cx="6" cy="14.001" r="2"></circle>
                    <path d="M10,0.001 L2,0.001 C0.896,0.001 0,0.897 0,2.001 L0,18.001 C0,19.105 0.896,20.001 2,20.001 L10,20.001 C11.104,20.001 12,19.105 12,18.001 L12,2.001 C12,0.897 11.104,0.001 10,0.001 L10,0.001 Z M6,18.001 C3.794,18.001 2,16.206 2,14.001 C2,11.796 3.794,10.001 6,10.001 C8.206,10.001 10,11.796 10,14.001 C10,16.206 8.206,18.001 6,18.001 L6,18.001 Z M10,8.001 L2,8.001 L2,2.001 L10,2.001 L10,8.001 L10,8.001 Z" id="Shape" fill="#446CB3"></path>
                </g>
            </g>
        </g>
    </g>
</svg>