<?xml version="1.0" encoding="UTF-8" standalone="no"?>
<svg width="25px" height="25px" viewBox="0 0 25 25" version="1.1" xmlns="http://www.w3.org/2000/svg" xmlns:xlink="http://www.w3.org/1999/xlink" xmlns:sketch="http://www.bohemiancoding.com/sketch/ns">
    <!-- Generator: Sketch 3.5.1 (25234) - http://www.bohemiancoding.com/sketch -->
    <title>Slice 1</title>
    <desc>Created with Sketch.</desc>
    <defs></defs>
    <g id="Page-1" stroke="none" stroke-width="1" fill="none" fill-rule="evenodd" sketch:type="MSPage">
        <g id="food-cake-piece" sketch:type="MSLayerGroup">
            <g id="Frame_-_24px" sketch:type="MSShapeGroup">
                <rect id="Rectangle-path" x="0.999" y="0.998" width="24.001" height="24.001"></rect>
            </g>
            <g id="Filled_Icons" transform="translate(4.000000, 2.000000)" sketch:type="MSShapeGroup">
                <g id="Group">
                    <path d="M8,8 C9.656,8 11,6.657 11,5 C11,4.432 10.832,3.906 10.559,3.453 C11.099,2.972 12.071,2.548 13.758,2.971 L14.242,1.03 C11.661,0.385 9.975,1.184 9,2.184 C8.686,2.072 8.352,2 8,2 C6.343,2 5,3.344 5,5 C5,6.657 6.343,8 8,8 L8,8 Z" id="Shape" fill="#C0392B"></path>
                    <path d="M11.708,6.486 C11.117,7.958 9.684,9 8,9 C5.791,9 4,7.21 4,5 C4,4.782 4.031,4.571 4.064,4.362 C1.411,6.231 0.344,9.038 0.074,11 L17.35,11 L11.708,6.486 L11.708,6.486 Z" id="Shape" fill="#663300"></path>
                    <path d="M16.999,12 L0.999,12 C0.447,12 -0.001,12.448 -4.44088998e-16,13 L-4.44088998e-16,16 L17.999,16 L17.999,13 C17.999,12.448 17.551,12 16.999,12 L16.999,12 Z" id="Shape" fill="#F1A9A0"></path>
                    <path d="M0.999,21 L16.999,21 C17.551,21 17.999,20.552 17.999,20 L17.999,17 L-3.74789633e-16,17 L-3.74789633e-16,20 C-0.001,20.552 0.447,21 0.999,21 Z" id="Shape" fill="#F1A9A0"></path>
                </g>
            </g>
        </g>
    </g>
</svg>