<?xml version="1.0" encoding="UTF-8" standalone="no"?>
<svg width="24px" height="24px" viewBox="0 0 24 24" version="1.1" xmlns="http://www.w3.org/2000/svg" xmlns:xlink="http://www.w3.org/1999/xlink" xmlns:sketch="http://www.bohemiancoding.com/sketch/ns">
    <!-- Generator: Sketch 3.5.1 (25234) - http://www.bohemiancoding.com/sketch -->
    <title>Slice 1</title>
    <desc>Created with Sketch.</desc>
    <defs></defs>
    <g id="Page-1" stroke="none" stroke-width="1" fill="none" fill-rule="evenodd" sketch:type="MSPage">
        <g id="pet-food-1" sketch:type="MSLayerGroup">
            <g id="Frame_-_24px" sketch:type="MSShapeGroup">
                <rect id="Rectangle-path" x="0" y="0" width="24" height="24"></rect>
            </g>
            <g id="Filled_Icons" transform="translate(2.000000, 6.000000)" sketch:type="MSShapeGroup">
                <g id="Group">
                    <path d="M19.123,9.858 C19.052,9.365 18.63,9 18.133,9 L1.867,9 C1.369,9 0.948,9.365 0.877,9.858 L0.163,14.858 C0.122,15.145 0.207,15.435 0.397,15.655 C0.587,15.874 0.863,16 1.153,16 L18.847,16 C19.137,16 19.413,15.874 19.603,15.655 C19.793,15.435 19.878,15.145 19.837,14.858 L19.123,9.858 L19.123,9.858 Z M15,14 L5,14 L5,11 L15,11 L15,14 L15,14 Z" id="Shape" fill="#8F1D21"></path>
                    <path d="M14.6,3.04 C13.837,1.253 12.065,0 10,0 C7.935,0 6.163,1.253 5.4,3.04 C2.898,2.787 1,4.75 1,7 L19,7 C19,4.752 17.104,2.787 14.6,3.04 L14.6,3.04 Z" id="Shape" fill="#8B572A"></path>
                </g>
            </g>
        </g>
    </g>
</svg>