<?xml version="1.0" encoding="UTF-8" standalone="no"?>
<svg width="25px" height="25px" viewBox="0 0 25 25" version="1.1" xmlns="http://www.w3.org/2000/svg" xmlns:xlink="http://www.w3.org/1999/xlink" xmlns:sketch="http://www.bohemiancoding.com/sketch/ns">
    <!-- Generator: Sketch 3.5.1 (25234) - http://www.bohemiancoding.com/sketch -->
    <title>Slice 1</title>
    <desc>Created with Sketch.</desc>
    <defs></defs>
    <g id="Page-1" stroke="none" stroke-width="1" fill="none" fill-rule="evenodd" sketch:type="MSPage">
        <g id="band12" sketch:type="MSLayerGroup">
            <g id="Group" sketch:type="MSShapeGroup">
                <path d="M9.1126188,10.4479642 L14.2654963,17.6731542 C14.3346621,17.770114 14.3911563,17.8738871 14.4347677,17.9822476 C15.1399419,17.7002443 16.2229937,17.2795874 16.3101901,17.1852606 C16.4107445,17.0764658 16.3304382,16.9217155 16.2951426,16.7975027 C16.2076558,16.4895223 16.1129884,16.1836319 16.017397,15.878203 C16.0000792,15.8228284 15.982735,15.767481 15.9651531,15.7121878 C15.9437434,15.622747 15.9969113,15.5324104 16.0838701,15.510342 C16.0838701,15.510342 17.3993136,15.1773887 17.4043559,15.1761401 C17.4434002,15.1662595 17.4790127,15.1352334 17.5034319,15.0963355 C17.5303326,15.0535016 17.543585,15.0010858 17.5330253,14.956759 L17.192793,13.5356949 C17.1713833,13.4462541 17.2245248,13.3559175 17.31151,13.3338762 L18.6344773,12.9989957 C18.6772175,12.988165 18.7138332,12.959962 18.7359556,12.9208198 L18.7440338,12.9065418 C18.7651531,12.8691911 18.7713305,12.8248643 18.7612724,12.782899 L18.4204329,11.3592291 C18.3990232,11.2697883 18.4521647,11.1794517 18.5391499,11.1574104 L19.8645987,10.8219055 C19.907339,10.8111021 19.943981,10.7828719 19.9660771,10.7437296 L19.9722809,10.7327362 C19.9934002,10.6953855 19.9995776,10.6510586 19.9895195,10.6090934 L19.6480201,9.18279045 C19.6265839,9.09334962 19.6797518,9.00301303 19.7667371,8.98097177 L21.0946674,8.64484256 C21.1373812,8.63403909 21.1740232,8.6058089 21.1961457,8.56669381 L21.200528,8.55895765 C21.2216209,8.52160695 21.2278247,8.47728013 21.2177402,8.43531488 L20.9324182,7.24359392 C20.901056,7.11259501 20.8579197,6.94210098 20.8943506,6.88018458 C20.9158395,6.84367535 20.9508976,6.81558089 20.994377,6.80456026 L22.3247888,6.46780673 C22.3461721,6.46240499 22.3659979,6.45263301 22.3832629,6.43933225 C22.4120644,6.41715527 22.4268215,6.38862649 22.4275343,6.38740499 L22.4288279,6.38517915 C22.4499472,6.34782845 22.4560982,6.30350163 22.4460665,6.26153637 L22.1033527,4.82994028 C22.0819166,4.74049946 22.1350845,4.65016287 22.2220697,4.62814875 L23.5549102,4.2907709 C23.5976505,4.27996743 23.6342661,4.25173724 23.656415,4.21262215 L23.657075,4.2114278 C23.6781943,4.17407709 23.6843717,4.12975027 23.6743136,4.08778502 L23.3309398,2.65355592 C23.3095037,2.56411509 23.3626716,2.4737785 23.4496568,2.45173724 L24.749472,2.07163409 C24.8756864,2.0347177 24.9974393,2.00228013 24.9964361,1.88653637 C24.9958817,1.81886536 24.8542767,1.71254072 24.7571278,1.62185125 L23.3401267,0.29932139 C23.2429514,0.208631922 23.0777719,0.0655266015 22.9512408,0.0298045603 C22.7605861,-0.0240499457 22.5516103,0.0117535288 22.3854541,0.137024973 L8.94577614,10.2708198 C9.00821014,10.3216069 9.06467793,10.3807546 9.1126188,10.4479642 L9.1126188,10.4479642 Z" id="Shape" fill="#464646"></path>
                <path d="M0.688041183,18.6387351 C0.838357973,18.8495385 1.07130412,18.9611835 1.30739176,18.9611835 C1.46486272,18.9611835 1.62375924,18.9115092 1.76048046,18.8084148 C1.76048046,18.8084148 1.82521119,18.7596091 1.90506864,18.6994028 C1.93041183,18.6802932 1.96058606,18.6711998 1.99244984,18.6711998 C2.06092925,18.6711998 2.13717001,18.7131379 2.19015312,18.7873779 L4.7624868,22.3942454 C4.84007392,22.5030402 4.83825238,22.6400651 4.75842133,22.7002443 L4.61383316,22.8092834 C4.27212249,23.066911 4.19825766,23.5606406 4.44883844,23.9119978 L4.98827878,24.6683496 C5.13859556,24.8791531 5.37154171,24.9908252 5.60760296,24.9908252 C5.76510032,24.9908252 5.92397043,24.9411509 6.06071806,24.8380293 L6.9686114,24.1534745 L7.70021119,23.6018458 L13.568321,19.1771716 C13.8609029,18.9565689 13.9569166,18.5629479 13.8212249,18.2337405 C13.7984424,18.1784745 13.7693506,18.1249457 13.7333157,18.0744571 L8.58041183,10.8492671 C8.53384372,10.7840119 8.46172122,10.74943 8.38859556,10.74943 C8.33983633,10.74943 8.2906283,10.7647937 8.24831045,10.7967427 L6.93901795,11.7839305 L1.9530623,15.5434311 L1.22146251,16.0950597 L0.313595565,16.7796145 C-0.0281151003,17.0372693 -0.102006336,17.5309989 0.148600845,17.8823561 L0.688041183,18.6387351 L0.688041183,18.6387351 Z M3.5,16.2004615 L5.23231257,14.8942997 C5.57402323,14.636645 6.05417107,14.712595 6.30475185,15.0639522 L9.4530623,19.4783931 C9.70364308,19.8297231 9.62977825,20.3234528 9.28806758,20.5811075 L7.55575502,21.8872693 C7.21404435,22.144924 6.73389652,22.0689739 6.48331573,21.7176167 L3.33500528,17.3031759 C3.0844245,16.9518458 3.15828933,16.4581162 3.5,16.2004615 L3.5,16.2004615 Z" id="Shape" fill="#BA4124"></path>
            </g>
        </g>
    </g>
</svg>