<?xml version="1.0" encoding="UTF-8" standalone="no"?>
<svg width="25px" height="25px" viewBox="0 0 25 25" version="1.1" xmlns="http://www.w3.org/2000/svg" xmlns:xlink="http://www.w3.org/1999/xlink" xmlns:sketch="http://www.bohemiancoding.com/sketch/ns">
    <!-- Generator: Sketch 3.5.1 (25234) - http://www.bohemiancoding.com/sketch -->
    <title>Slice 1</title>
    <desc>Created with Sketch.</desc>
    <defs></defs>
    <g id="Page-1" stroke="none" stroke-width="1" fill="none" fill-rule="evenodd" sketch:type="MSPage">
        <g id="food-salt-pepper" sketch:type="MSLayerGroup">
            <g id="Frame_-_24px" sketch:type="MSShapeGroup">
                <rect id="Rectangle-path" x="0.998" y="0.999" width="24.001" height="24.001"></rect>
            </g>
            <g id="Filled_Icons" transform="translate(3.000000, 3.000000)" sketch:type="MSShapeGroup">
                <g id="Group">
                    <path d="M16,10 L14,10 C12.346,10 11,11.346 11,13 L11,19 C11,19.552 11.447,20 12,20 L18,20 C18.553,20 19,19.552 19,19 L19,13 C19,11.346 17.654,10 16,10 L16,10 Z" id="Shape" fill="#141414"></path>
                    <path d="M12.5,6 L17.5,6 C18.329,6 19,5.328 19,4.5 C19,3.672 18.329,3 17.5,3 L16,3 L16,2 L17,2 L17,0 L13,0 L13,2 L14,2 L14,3 L12.5,3 C11.672,3 11,3.672 11,4.5 C11,5.328 11.672,6 12.5,6 L12.5,6 Z" id="Shape" fill="#141414"></path>
                    <path d="M4.5,10 C1.851,10 0,11.644 0,14 L0,19 C0,19.552 0.447,20 1,20 L8,20 C8.553,20 9,19.552 9,19 L9,14 C9,11.644 7.149,10 4.5,10 L4.5,10 Z M2.75,13.5 C2.336,13.5 2,13.164 2,12.75 C2,12.336 2.336,12 2.75,12 C3.165,12 3.5,12.336 3.5,12.75 C3.5,13.164 3.165,13.5 2.75,13.5 L2.75,13.5 Z M6.25,13.5 C5.836,13.5 5.5,13.164 5.5,12.75 C5.5,12.336 5.836,12 6.25,12 C6.665,12 7,12.336 7,12.75 C7,13.164 6.665,13.5 6.25,13.5 L6.25,13.5 Z" id="Shape" fill="#ECF0F1"></path>
                    <rect id="Rectangle-path" fill="#141414" x="13" y="7" width="4" height="2"></rect>
                </g>
            </g>
        </g>
    </g>
</svg>