<?xml version="1.0" encoding="UTF-8" standalone="no"?>
<svg width="26px" height="25px" viewBox="0 0 26 25" version="1.1" xmlns="http://www.w3.org/2000/svg" xmlns:xlink="http://www.w3.org/1999/xlink" xmlns:sketch="http://www.bohemiancoding.com/sketch/ns">
    <!-- Generator: Sketch 3.5.1 (25234) - http://www.bohemiancoding.com/sketch -->
    <title>Slice 1</title>
    <desc>Created with Sketch.</desc>
    <defs></defs>
    <g id="Page-1" stroke="none" stroke-width="1" fill="none" fill-rule="evenodd" sketch:type="MSPage">
        <g id="t-shirt5" sketch:type="MSLayerGroup" transform="translate(1.000000, 0.000000)" fill="#2C3E50">
            <path d="M24.96375,4.28309456 C25,4.4741404 24.96375,4.68904011 24.8550543,4.9277937 L21.8659239,10.8017192 C21.7572283,11.0404728 21.576087,11.1598854 21.3224457,11.1598854 C21.21375,11.1598854 21.1231522,11.1360315 21.0507065,11.0882521 L18.6594022,10.3719198 L18.6594022,24.2687679 C18.6594022,24.7463467 18.4601087,24.9851003 18.0615761,24.9851003 L6.37679348,24.9851003 C6.01445652,24.9851003 5.83331522,24.7463467 5.83331522,24.2687679 L5.83331522,10.3719198 L3.65940217,11.0882521 C3.40576087,11.2315186 3.20652174,11.1360315 3.06157609,10.8017192 L0.0724456522,4.9277937 C5.6717665e-16,4.73674785 -0.0181521739,4.54577364 0.0180978261,4.35472779 C0.0543478261,4.11561605 0.163043478,3.94842407 0.344184783,3.85329513 L6.37679348,0.0567335244 L9.20288043,0.0567335244 C9.56521739,0.0567335244 9.7463587,0.295487106 9.7463587,0.773065903 C9.7463587,1.48939828 10.0452717,2.0982808 10.6430978,2.59971347 C11.2409239,3.10114613 11.8568478,3.35186246 12.4909239,3.35186246 C13.125,3.35186246 13.75,3.10114613 14.3659239,2.59971347 C14.9818478,2.0982808 15.289837,1.48939828 15.289837,0.773065903 C15.289837,0.295487106 15.4709783,0.0567335244 15.8333152,0.0567335244 L18.6594022,0.0567335244 L24.637663,3.78166189 C24.8188043,3.877149 24.9275,4.04434097 24.96375,4.28309456 L24.96375,4.28309456 Z" id="Shape" sketch:type="MSShapeGroup"></path>
        </g>
    </g>
</svg>